# xmcd
#
# Track frame offsets:
#	150
#	13779
#	36662
#	50347
#	66553
#	84156
#	101445
#	115391
#	140543
#	149029
#	167034
#	184516
#	206033
#	234470
#	258474
#	271752
#	287298
#	297144
#	318065
#	336266
#
# Disc length: 4790 seconds
#
# Revision: 0
# Processed by: cddbd v1.5.2PL0 Copyright (c) Steve Scherf et al.
# Submitted via: EasyCDDAExtractor 11.9.9.666
#
DISCID=2c12b414
DTITLE=Various Artist - Fear Candy 45 B (The Unsigned Edition)
DYEAR=2007
DGENRE=Metal
TTITLE0=Jazz Thrash Assassin - Noise
TTITLE1=Terminal Descent - I Of One Am Many
TTITLE2=Soreption - 2
TTITLE3=Kommandant - Blood And Savagery
TTITLE4=Seregon - Apocalyptic Visions
TTITLE5=Rannoch - Heathen
TTITLE6=Overoth - Death Personified
TTITLE7=Divinity - Plasma
TTITLE8=Awoke - God Has Damned You
TTITLE9=The Battalion - The Spirit Of Masculinity
TTITLE10=Matron - Welcome To Hell
TTITLE11=Drag The Lake - Balboa Constrictor
TTITLE12=Cachexic - Narcosis
TTITLE13=Sentenced To Suffer - Defiling The Altar
TTITLE14=Gunt - Kobra Kommander
TTITLE15=Sempeternal Fall - Born To Kill
TTITLE16=Anoxia - Eremite
TTITLE17=13 Winters - Wrong Side Of The Mirror
TTITLE18=Guerrilla Monsoon - Driven By Hatred
TTITLE19=Seven7 - Save Yourself
EXTD=
EXTT0=
EXTT1=
EXTT2=
EXTT3=
EXTT4=
EXTT5=
EXTT6=
EXTT7=
EXTT8=
EXTT9=
EXTT10=
EXTT11=
EXTT12=
EXTT13=
EXTT14=
EXTT15=
EXTT16=
EXTT17=
EXTT18=
EXTT19=
PLAYORDER=
